<svg xmlns="http://www.w3.org/2000/svg" viewBox="0 0 1600 900" shape-rendering="crispEdges">
  <rect width="1600" height="900" fill="#101725"/>
  <rect y="0" width="1600" height="84" fill="#151f30"/>
  <rect y="84" width="1600" height="516" fill="#1a2637"/>
  <rect y="576" width="1600" height="24" fill="#111a29"/>
  <rect x="52" y="112" width="520" height="360" fill="#0a101d"/>
  <rect x="68" y="128" width="488" height="328" fill="#121d31"/>
  <rect x="302" y="128" width="10" height="328" fill="#29364a"/>
  <rect x="68" y="296" width="488" height="10" fill="#29364a"/>
  <rect x="89" y="149" width="4" height="4" fill="#d9ca8c"/><rect x="151" y="190" width="3" height="3" fill="#d9ca8c"/>
  <rect x="225" y="163" width="5" height="5" fill="#a8b5ca"/><rect x="362" y="174" width="3" height="3" fill="#d9ca8c"/>
  <rect x="476" y="151" width="4" height="4" fill="#a8b5ca"/><rect x="520" y="231" width="3" height="3" fill="#d9ca8c"/>
  <rect x="83" y="381" width="72" height="75" fill="#17263b"/><rect x="97" y="354" width="42" height="27" fill="#17263b"/>
  <rect x="108" y="342" width="20" height="12" fill="#17263b"/><rect x="104" y="401" width="10" height="12" fill="#d5b565"/>
  <rect x="131" y="401" width="10" height="12" fill="#d5b565"/><rect x="185" y="405" width="92" height="51" fill="#1b2d46"/>
  <rect x="202" y="419" width="9" height="11" fill="#9d8457"/><rect x="230" y="419" width="9" height="11" fill="#d5b565"/>
  <rect x="347" y="391" width="58" height="65" fill="#17263b"/><rect x="420" y="371" width="112" height="85" fill="#1b2d46"/>
  <rect x="447" y="394" width="12" height="14" fill="#d5b565"/><rect x="490" y="394" width="12" height="14" fill="#9d8457"/>
  <rect y="600" width="1600" height="300" fill="#3a2b2b"/><rect y="600" width="1600" height="16" fill="#5c3d34"/>
  <rect y="616" width="1600" height="8" fill="#2b2226"/><rect y="700" width="1600" height="8" fill="#4b3430"/>
  <rect y="824" width="1600" height="9" fill="#2b2226"/>
  <rect x="1174" y="174" width="28" height="414" fill="#171b27"/><rect x="1052" y="173" width="272" height="20" fill="#24283a"/>
  <rect x="1043" y="190" width="290" height="30" fill="#b78e51"/><rect x="1060" y="220" width="256" height="12" fill="#d2ad67"/>
  <rect x="1098" y="232" width="180" height="56" fill="#6f563b"/><rect x="1134" y="288" width="106" height="264" fill="#c29a59"/>
  <rect x="1170" y="320" width="34" height="232" fill="#d8b568"/><rect x="1180" y="552" width="14" height="62" fill="#1f202a"/>
  <rect x="1284" y="560" width="180" height="40" fill="#222c3c"/><rect x="1302" y="522" width="144" height="38" fill="#2d3c4d"/>
  <rect x="1322" y="502" width="104" height="20" fill="#9d6e55"/><rect x="1360" y="472" width="28" height="30" fill="#243041"/>
  <rect x="1390" y="480" width="16" height="22" fill="#243041"/>
  <rect x="123" y="664" width="136" height="18" fill="#152131"/><rect x="137" y="682" width="110" height="10" fill="#74604d"/>
  <rect x="128" y="692" width="130" height="8" fill="#c4aa76"/><rect x="285" y="648" width="24" height="85" fill="#1f2938"/>
  <rect x="309" y="710" width="72" height="13" fill="#1f2938"/>
  <rect x="1388" y="648" width="78" height="82" fill="#182434"/><rect x="1400" y="634" width="54" height="14" fill="#a6b3bf"/>
  <rect x="1409" y="624" width="36" height="10" fill="#677786"/><rect x="1398" y="730" width="58" height="8" fill="#201c23"/>
  <rect width="1600" height="4" fill="#28374a"/>
</svg>
